{
  "schema_version": "final_qc_v1",
  "episode_id": "PD-2026-006-terry",
  "revision": "v002",
  "render": "artifact://episodes/PD-2026-006-terry/08_edit/terry_final_v002.mp4",
  "render_actual_path": "H:\\pd-media\\episodes\\PD-2026-006-terry\\08_edit\\terry_final_v002.mp4",
  "sha256": "13729faa3c1a82a9b085414f739d6518b7c93453375c8a47848611fff8774494",
  "duration_seconds": 678.0,
  "target_duration_seconds": 678.0,
  "video": "Remotion TerryPremium v002, 180 local SDXL symbolic hero plates, crossfades, pan/zoom, light motion",
  "audio": {
    "narration": "Approved ElevenLabs master reused and slowed to fit timeline",
    "narration_master": "artifact://episodes/PD-2026-006-terry/06_voice/master/vc_master_v001.mp3",
    "narration_slowed": "artifact://episodes/PD-2026-006-terry/06_voice/master/vc_master_v001_slowed_672s_for_v002.mp3",
    "narration_slowed_seconds": 671.984,
    "music": "Prime Documentary reusable library multi-bed mix",
    "sfx": "Prime Documentary reusable library spot SFX"
  },
  "captions": "artifact://episodes/PD-2026-006-terry/08_edit/captions.final.v002.srt",
  "contact_sheet": "artifact://episodes/PD-2026-006-terry/08_edit/renders/final.v002.contact_sheet.jpg",
  "image_plate_count": 180,
  "synthetic_content_disclosure_required": true,
  "contains_ai_symbolic_reconstruction": true,
  "upload_performed": false,
  "publish_performed": false,
  "qc_status": "pass_with_warnings",
  "warnings": [
    "No upload or publish was performed.",
    "Caption timing is derived from ElevenLabs chunk timings and uniform slowdown, not Whisper word-level forced alignment.",
    "Synthetic-content disclosure is required because symbolic AI reconstructions are used."
  ],
  "audio_probe_tail": "me= 3576 fps=2306 q=-0.0 size=N/A time=00:01:59.16 bitrate=N/A speed=76.8x elapsed=0:00:01.55    \nframe= 4763 fps=2301 q=-0.0 size=N/A time=00:02:38.73 bitrate=N/A speed=76.7x elapsed=0:00:02.06    \nframe= 5842 fps=2268 q=-0.0 size=N/A time=00:03:14.73 bitrate=N/A speed=75.6x elapsed=0:00:02.57    \nframe= 7138 fps=2302 q=-0.0 size=N/A time=00:03:57.90 bitrate=N/A speed=76.7x elapsed=0:00:03.10    \nframe= 8354 fps=2316 q=-0.0 size=N/A time=00:04:38.46 bitrate=N/A speed=77.2x elapsed=0:00:03.60    \nframe= 9471 fps=2296 q=-0.0 size=N/A time=00:05:15.70 bitrate=N/A speed=76.5x elapsed=0:00:04.12    \nframe=10527 fps=2265 q=-0.0 size=N/A time=00:05:50.90 bitrate=N/A speed=75.5x elapsed=0:00:04.64    \nframe=11525 fps=2232 q=-0.0 size=N/A time=00:06:24.16 bitrate=N/A speed=74.4x elapsed=0:00:05.16    \nframe=12510 fps=2203 q=-0.0 size=N/A time=00:06:57.00 bitrate=N/A speed=73.4x elapsed=0:00:05.67    \nframe=13455 fps=2171 q=-0.0 size=N/A time=00:07:28.50 bitrate=N/A speed=72.4x elapsed=0:00:06.19    \nframe=14571 fps=2173 q=-0.0 size=N/A time=00:08:05.63 bitrate=N/A speed=72.4x elapsed=0:00:06.70    \nframe=15743 fps=2177 q=-0.0 size=N/A time=00:08:44.76 bitrate=N/A speed=72.6x elapsed=0:00:07.23    \nframe=16771 fps=2168 q=-0.0 size=N/A time=00:09:19.03 bitrate=N/A speed=72.3x elapsed=0:00:07.73    \nframe=17855 fps=2162 q=-0.0 size=N/A time=00:09:55.10 bitrate=N/A speed=72.1x elapsed=0:00:08.25    \nframe=18954 fps=2163 q=-0.0 size=N/A time=00:10:31.76 bitrate=N/A speed=72.1x elapsed=0:00:08.76    \n[Parsed_volumedetect_0 @ 000002d4ba245c00] n_samples: 65081344\n[Parsed_volumedetect_0 @ 000002d4ba245c00] mean_volume: -16.0 dB\n[Parsed_volumedetect_0 @ 000002d4ba245c00] max_volume: -0.6 dB\n[Parsed_volumedetect_0 @ 000002d4ba245c00] histogram_0db: 1324\n[Parsed_volumedetect_0 @ 000002d4ba245c00] histogram_1db: 14398\n[Parsed_volumedetect_0 @ 000002d4ba245c00] histogram_2db: 38219\n[Parsed_volumedetect_0 @ 000002d4ba245c00] histogram_3db: 83748\n[out#0/null @ 000002d4b80fff80] video:8422KiB audio:127112KiB subtitle:0KiB other streams:0KiB global headers:0KiB muxing overhead: unknown\nframe=20340 fps=2194 q=-0.0 Lsize=N/A time=00:11:18.00 bitrate=N/A speed=73.1x elapsed=0:00:09.27    \n",
  "created_at": "2026-06-21T02:30:19.010858+00:00"
}
